<svg width="51" height="30" viewBox="0 0 51 30" fill="none" xmlns="http://www.w3.org/2000/svg">
<path d="M7.648 5.64V9.64C7.648 10.76 8.256 11.272 9.216 11.272H20.736C21.728 11.272 22.24 12.04 22.24 12.808C22.24 13.576 21.728 14.344 20.736 14.344H8.608C5.888 14.344 4.064 12.776 4.064 9.736V4.872C4.064 2.728 5.088 1.544 7.392 1.544H20.512C21.536 1.544 22.048 2.344 22.048 3.112C22.048 3.88 21.536 4.648 20.512 4.648H8.672C8 4.648 7.648 4.968 7.648 5.64ZM11.296 20.392H2.176C1.152 20.392 0.64 19.624 0.64 18.856C0.64 18.056 1.152 17.288 2.176 17.288H24.032C25.088 17.288 25.6 18.056 25.6 18.856C25.6 19.624 25.088 20.392 24.032 20.392H14.944V27.496C14.944 28.744 14.016 29.32 13.12 29.32C12.192 29.32 11.296 28.744 11.296 27.496V20.392ZM50.538 2.152V27.24C50.538 28.424 49.642 29.032 48.746 29.032C47.85 29.032 46.954 28.424 46.954 27.24V2.152C46.954 0.967999 47.85 0.359999 48.746 0.359999C49.642 0.359999 50.538 0.967999 50.538 2.152ZM42.602 21H32.746C29.418 21 27.754 18.312 27.754 15.592C27.754 12.872 29.418 10.152 32.746 10.152H37.386C38.73 10.152 39.434 8.968 39.434 7.752C39.434 6.504 38.73 5.32 37.386 5.32H30.026C29.034 5.32 28.522 4.584 28.522 3.816C28.522 3.048 29.034 2.28 30.026 2.28H37.93C41.258 2.28 42.922 5 42.922 7.688C42.922 10.408 41.258 13.096 37.93 13.096H33.29C31.946 13.096 31.242 14.28 31.242 15.528C31.242 16.744 31.946 17.928 33.29 17.928H42.602C43.562 17.928 44.074 18.696 44.074 19.464C44.074 20.232 43.562 21 42.602 21Z" fill="#9DD6FF"/>
</svg>
