<svg width="90" height="89" viewBox="0 0 90 89" fill="none" xmlns="http://www.w3.org/2000/svg">
<path d="M45.0003 7.41675C65.4807 7.41675 82.0837 24.0195 82.0837 44.5001C82.0837 47.1946 81.7963 49.8219 81.2504 52.3532L74.6414 45.7442C74.6585 45.3315 74.667 44.9169 74.667 44.5001C74.667 28.1156 61.3849 14.8334 45.0003 14.8334C28.6159 14.8334 15.3337 28.1156 15.3337 44.5001C15.3337 60.8846 28.6159 74.1667 45.0003 74.1667C49.8297 74.1667 54.3895 73.0127 58.4193 70.9657C58.9937 71.878 59.6779 72.7387 60.47 73.5304C61.591 74.6514 62.8467 75.5555 64.185 76.2427C58.5884 79.6317 52.0224 81.5834 45.0003 81.5834C24.5198 81.5834 7.91699 64.9805 7.91699 44.5001C7.91699 24.0195 24.5198 7.41675 45.0003 7.41675ZM70.9587 52.5531L76.203 57.7974C79.0996 60.6936 79.0996 65.3899 76.203 68.2861C73.3068 71.1827 68.6105 71.1827 65.7143 68.2861C62.9494 65.5215 62.8241 61.1171 65.3372 58.2031L65.7143 57.7974L70.9587 52.5531ZM45.0003 55.6251C50.4382 55.6251 55.3291 57.9658 58.7208 61.6949L55.2164 64.8815C52.2872 63.7185 48.7754 63.0418 45.0003 63.0418C41.2252 63.0418 37.7135 63.7185 34.7841 64.8815L31.2798 61.6949C34.6714 57.9658 39.5624 55.6251 45.0003 55.6251ZM32.0212 37.0834C35.0933 37.0834 37.5837 39.5739 37.5837 42.6459C37.5837 45.7179 35.0933 48.2084 32.0212 48.2084C28.9491 48.2084 26.4587 45.7179 26.4587 42.6459C26.4587 39.5739 28.9491 37.0834 32.0212 37.0834ZM57.9795 37.0834C61.0515 37.0834 63.542 39.5739 63.542 42.6459C63.542 45.7179 61.0515 48.2084 57.9795 48.2084C54.9075 48.2084 52.417 45.7179 52.417 42.6459C52.417 39.5739 54.9075 37.0834 57.9795 37.0834Z" fill="#8A8A8A"/>
</svg>
