<svg width="61" height="61" viewBox="0 0 61 61" fill="none" xmlns="http://www.w3.org/2000/svg">
<rect x="0.5" y="0.5" width="60" height="60" rx="7.5" fill="#FAFAFA" stroke="#B6B4B4"/>
<path d="M39.1934 29.7793L24.707 44.2656L24 43.5586L37.7793 29.7793L24.707 16.707L25.4141 16L39.1934 29.7793Z" fill="black"/>
<path d="M39.1934 29.7793L39.5469 30.1329L39.9005 29.7793L39.5469 29.4257L39.1934 29.7793ZM24.707 44.2656L24.3535 44.6192L24.707 44.9727L25.0606 44.6192L24.707 44.2656ZM24 43.5586L23.6464 43.205L23.2929 43.5586L23.6464 43.9121L24 43.5586ZM37.7793 29.7793L38.1329 30.1329L38.4864 29.7793L38.1329 29.4257L37.7793 29.7793ZM24.707 16.707L24.3535 16.3535L23.9999 16.707L24.3535 17.0606L24.707 16.707ZM25.4141 16L25.7676 15.6464L25.4141 15.2929L25.0605 15.6464L25.4141 16ZM39.1934 29.7793L38.8398 29.4257L24.3535 43.9121L24.707 44.2656L25.0606 44.6192L39.5469 30.1329L39.1934 29.7793ZM24.707 44.2656L25.0606 43.9121L24.3536 43.205L24 43.5586L23.6464 43.9121L24.3535 44.6192L24.707 44.2656ZM24 43.5586L24.3536 43.9121L38.1329 30.1329L37.7793 29.7793L37.4257 29.4257L23.6464 43.205L24 43.5586ZM37.7793 29.7793L38.1329 29.4257L25.0606 16.3535L24.707 16.707L24.3535 17.0606L37.4257 30.1329L37.7793 29.7793ZM24.707 16.707L25.0606 17.0606L25.7676 16.3536L25.4141 16L25.0605 15.6464L24.3535 16.3535L24.707 16.707ZM25.4141 16L25.0605 16.3536L38.8398 30.1329L39.1934 29.7793L39.5469 29.4257L25.7676 15.6464L25.4141 16Z" fill="black"/>
</svg>
