<svg width="61" height="61" viewBox="0 0 61 61" fill="none" xmlns="http://www.w3.org/2000/svg">
<rect x="60.5" y="60.5" width="60" height="60" rx="7.5" transform="rotate(-180 60.5 60.5)" fill="#FAFAFA" stroke="#B6B4B4"/>
<path d="M21.8066 31.2207L36.293 16.7344L37 17.4414L23.2207 31.2207L36.293 44.293L35.5859 45L21.8066 31.2207Z" fill="black"/>
<path d="M21.8066 31.2207L21.4531 30.8671L21.0995 31.2207L21.4531 31.5743L21.8066 31.2207ZM36.293 16.7344L36.6465 16.3808L36.293 16.0273L35.9394 16.3808L36.293 16.7344ZM37 17.4414L37.3536 17.795L37.7071 17.4414L37.3536 17.0879L37 17.4414ZM23.2207 31.2207L22.8672 30.8671L22.5136 31.2207L22.8672 31.5743L23.2207 31.2207ZM36.293 44.293L36.6465 44.6465L37.0001 44.293L36.6465 43.9394L36.293 44.293ZM35.5859 45L35.2324 45.3536L35.5859 45.7071L35.9395 45.3536L35.5859 45ZM21.8066 31.2207L22.1602 31.5743L36.6465 17.0879L36.293 16.7344L35.9394 16.3808L21.4531 30.8671L21.8066 31.2207ZM36.293 16.7344L35.9394 17.0879L36.6464 17.795L37 17.4414L37.3536 17.0879L36.6465 16.3808L36.293 16.7344ZM37 17.4414L36.6464 17.0879L22.8672 30.8671L23.2207 31.2207L23.5743 31.5743L37.3536 17.795L37 17.4414ZM23.2207 31.2207L22.8672 31.5743L35.9394 44.6465L36.293 44.293L36.6465 43.9394L23.5743 30.8671L23.2207 31.2207ZM36.293 44.293L35.9394 43.9394L35.2324 44.6464L35.5859 45L35.9395 45.3536L36.6465 44.6465L36.293 44.293ZM35.5859 45L35.9395 44.6464L22.1602 30.8671L21.8066 31.2207L21.4531 31.5743L35.2324 45.3536L35.5859 45Z" fill="black"/>
</svg>
