<svg width="84" height="55" viewBox="0 0 84 55" fill="none" xmlns="http://www.w3.org/2000/svg">
<g clip-path="url(#clip0_8_28)">
<path d="M78.3125 1.71875C78.3125 2.66799 79.0866 3.4375 80.0417 3.4375H81.7708C82.7259 3.4375 83.5 2.66799 83.5 1.71875C83.5 0.769515 82.7259 3.8147e-06 81.7708 3.8147e-06H80.0417C79.0866 3.8147e-06 78.3125 0.769515 78.3125 1.71875Z" fill="#E73121"/>
<path d="M28.1667 55H36.5667L34.1212 52.5693C33.4727 51.9247 32.5931 51.5625 31.6759 51.5625H28.1667C14.7968 51.5625 3.95833 40.7894 3.95833 27.5C3.95833 14.2106 14.7968 3.43751 28.1667 3.4375H55.8333C69.2032 3.4375 80.0417 14.2106 80.0417 27.5C80.0417 40.7894 69.2032 51.5625 55.8333 51.5625H45.4838C44.1079 51.5625 42.7885 51.0192 41.8156 50.0523L38.9507 47.2046C37.3293 45.5929 35.1301 44.6875 32.8371 44.6875H28.1667C18.6167 44.6875 10.875 36.9925 10.875 27.5C10.875 18.0075 18.6167 10.3125 28.1667 10.3125H55.8333C65.3833 10.3125 73.125 18.0075 73.125 27.5C73.125 36.9925 65.3833 44.6875 55.8333 44.6875H49.1879C47.8121 44.6875 46.4926 44.1442 45.5198 43.1773L42.6547 40.3296C41.0333 38.7179 38.8342 37.8125 36.5412 37.8125H28.1667C22.4368 37.8125 17.7917 33.1954 17.7917 27.5C17.7917 21.8046 22.4368 17.1875 28.1667 17.1875H55.8333C61.5632 17.1875 66.2083 21.8046 66.2083 27.5C66.2083 33.1259 61.6758 37.6998 56.0425 37.8104L56.0414 37.8125H53.5109C52.135 37.8125 50.8156 37.2692 49.8427 36.3023L46.9776 33.4546C45.6473 32.1321 43.928 31.2852 42.0869 31.0238L42 30.9375H28.1667C26.2567 30.9375 24.7083 29.3985 24.7083 27.5C24.7083 25.6015 26.2567 24.0625 28.1667 24.0625H55.8333C57.7433 24.0625 59.2917 25.6015 59.2917 27.5C59.2917 29.3985 57.7433 30.9375 55.8333 30.9375H48.9167L51.3621 33.3682C52.0106 34.0128 52.8903 34.375 53.8074 34.375H55.8333C59.6533 34.375 62.75 31.2969 62.75 27.5C62.75 23.7031 59.6533 20.625 55.8333 20.625H28.1667C24.3467 20.625 21.25 23.7031 21.25 27.5C21.25 31.2969 24.3467 34.375 28.1667 34.375H40.8641C42.24 34.375 43.5594 34.9183 44.5323 35.8852L47.3974 38.7329C49.0188 40.3446 51.2178 41.25 53.5109 41.25H56.6979V41.2236C63.9351 40.78 69.6667 34.8052 69.6667 27.5C69.6667 19.9062 63.4732 13.75 55.8333 13.75H28.1667C20.5268 13.75 14.3333 19.9062 14.3333 27.5C14.3333 35.094 20.5268 41.25 28.1667 41.25H36.5412C37.9171 41.25 39.2365 41.7933 40.2094 42.7602L43.0744 45.6079C44.6958 47.2196 46.8949 48.125 49.1879 48.125H55.8333C67.2933 48.125 76.5833 38.8909 76.5833 27.5C76.5833 16.1091 67.2933 6.875 55.8333 6.875H28.1667C16.7067 6.875 7.41667 16.1091 7.41667 27.5C7.41667 38.8909 16.7067 48.125 28.1667 48.125H32.8371C34.2129 48.125 35.5324 48.6683 36.5053 49.6352L39.3703 52.4829C40.9917 54.0946 43.1908 55 45.4838 55H55.8333C71.1132 55 83.5 42.6878 83.5 27.5C83.5 12.3122 71.1132 -1.32776e-06 55.8333 0L28.1667 5.68238e-06C12.8868 7.01015e-06 0.499999 12.3122 0.5 27.5C0.500001 42.6878 12.8868 55 28.1667 55Z" fill="#E73121"/>
</g>
<defs>
<clipPath id="clip0_8_28">
<rect width="83" height="55" fill="white" transform="translate(0.5)"/>
</clipPath>
</defs>
</svg>
