<svg width="147" height="36" viewBox="0 0 147 36" fill="none" xmlns="http://www.w3.org/2000/svg">
<path d="M0.78125 22.4531L3.86719 21.8672C3.86719 23.0391 4.47917 23.9635 5.70312 24.6406C6.30208 24.9271 6.875 25.0833 7.42188 25.1094V28.1953C4.89583 28.1953 3.00781 27.2839 1.75781 25.4609C1.10677 24.4974 0.78125 23.4948 0.78125 22.4531ZM0.976562 12.8438C0.976562 10.474 2.05729 8.71615 4.21875 7.57031C5.26042 7.02344 6.30208 6.75 7.34375 6.75V9.79688C6.14583 9.79688 5.22135 10.2917 4.57031 11.2812C4.23177 11.776 4.0625 12.2969 4.0625 12.8438C4.0625 13.6771 4.71354 14.3542 6.01562 14.875C7.00521 15.2917 8.91927 15.8385 11.7578 16.5156C13.5286 16.8802 14.7917 17.7526 15.5469 19.1328C15.9375 19.862 16.1328 20.6823 16.1328 21.5938C16.1328 24.0938 15.1302 25.9427 13.125 27.1406C11.9531 27.8438 10.612 28.1953 9.10156 28.1953V25.1094C10.2995 25.1094 11.3021 24.6927 12.1094 23.8594C12.6823 23.2604 12.9688 22.5573 12.9688 21.75C12.9688 20.7083 11.9401 19.875 9.88281 19.25C9.36198 19.0938 8.52865 18.8724 7.38281 18.5859C6.15885 18.2995 5.27344 18.0651 4.72656 17.8828C2.7474 17.1016 1.54948 15.9167 1.13281 14.3281C1.02865 13.8594 0.976562 13.3646 0.976562 12.8438ZM9.0625 9.83594V6.75C11.3021 6.75 13.112 7.58333 14.4922 9.25C15.3516 10.3177 15.7812 11.4375 15.7812 12.6094L12.6953 13.1172C12.6953 11.6849 11.9141 10.6823 10.3516 10.1094C9.88281 9.92708 9.45312 9.83594 9.0625 9.83594ZM16.5781 10.2656V7.10156H19.1562V0.34375H22.4766V7.10156H24.9766V10.3047H22.4766V21.5156C22.4766 23.3646 23.2318 24.3932 24.7422 24.6016C25.0286 24.6536 25.3151 24.6797 25.6016 24.6797H26.1484L26.8906 28H25.4844C22.2812 27.974 20.3151 26.776 19.5859 24.4062C19.3255 23.5208 19.1953 22.4271 19.1953 21.125L19.1562 10.2656H16.5781ZM27.375 23.0781V21.2031C27.375 19.5104 28.0391 18.2734 29.3672 17.4922C29.7839 17.2839 31.3854 16.7891 34.1719 16.0078C37.2708 15.1484 38.8203 14.3932 38.8203 13.7422V13C38.8203 12.375 38.6641 11.8021 38.3516 11.2812C37.7526 10.2917 36.8411 9.79688 35.6172 9.79688V6.78906C37.4141 6.78906 38.9115 7.36198 40.1094 8.50781C41.3854 9.75781 42.0234 11.2161 42.0234 12.8828V23.5859C42.0495 24.3932 42.401 24.8229 43.0781 24.875V27.9609C41.776 27.9609 40.7214 27.5052 39.9141 26.5938C38.8724 27.4792 37.4401 27.9349 35.6172 27.9609V24.9141C35.8516 24.9141 36.099 24.901 36.3594 24.875C38 24.6146 38.8203 23.638 38.8203 21.9453V17.4531C38.1432 17.8177 36.8411 18.2344 34.9141 18.7031C32.4401 19.3021 31.0469 19.7448 30.7344 20.0312C30.4479 20.2917 30.2917 20.7083 30.2656 21.2812V22.3359C30.2917 24.0026 31.4375 24.862 33.7031 24.9141V27.9609C32.0885 27.9609 30.6823 27.5443 29.4844 26.7109C28.0781 25.7214 27.375 24.5104 27.375 23.0781ZM27.6484 12.1016C27.6484 10.8516 28.1432 9.73177 29.1328 8.74219C30.4089 7.4401 31.9453 6.78906 33.7422 6.78906V9.83594C33.2474 9.83594 32.7786 9.9401 32.3359 10.1484C31.138 10.7214 30.5391 11.737 30.5391 13.1953L27.6484 12.1016ZM44.3438 35.2266L45.1641 32.1797H52.5078C53.9661 32.1276 55.0339 31.5547 55.7109 30.4609C55.9193 30.0964 56.0234 29.7708 56.0234 29.4844V26.6719C54.9557 27.4271 53.888 27.8307 52.8203 27.8828V24.875C53.9661 24.875 54.8776 24.3932 55.5547 23.4297C55.8672 22.987 56.0234 22.5443 56.0234 22.1016V12.5312C56.0234 11.5417 55.4766 10.7604 54.3828 10.1875C53.862 9.92708 53.3411 9.79688 52.8203 9.79688V6.71094C53.9922 6.71094 55.0208 7.07552 55.9062 7.80469C55.9583 7.83073 55.9974 7.85677 56.0234 7.88281V6.71094H59.1875V29.4844C59.1875 30.6042 58.6797 31.763 57.6641 32.9609C56.388 34.4453 54.8125 35.2005 52.9375 35.2266H44.3438ZM44.7344 22.1406V12.375C44.7604 11.151 45.3073 9.95312 46.375 8.78125C47.651 7.42708 49.2266 6.73698 51.1016 6.71094V9.79688C49.8255 9.79688 48.862 10.3438 48.2109 11.4375C47.9766 11.8281 47.8594 12.1797 47.8594 12.4922V22.1016C47.8594 22.8828 48.263 23.5729 49.0703 24.1719C49.6693 24.5885 50.3464 24.7969 51.1016 24.7969V27.8828C48.7057 27.8568 46.8828 26.8411 45.6328 24.8359C45.0339 23.8724 44.7344 22.974 44.7344 22.1406ZM61.2344 22.2188V12.5312C61.2604 11.3333 61.8333 10.1484 62.9531 8.97656C64.3073 7.59635 65.9479 6.89323 67.875 6.86719V9.95312C66.625 9.95312 65.6484 10.5 64.9453 11.5938C64.6589 12.0625 64.5156 12.4922 64.5156 12.8828V15.5391H73.2656V12.8828C73.2656 11.7109 72.6667 10.8516 71.4688 10.3047C70.9219 10.0443 70.362 9.91406 69.7891 9.91406V6.86719C71.5859 6.86719 73.1875 7.50521 74.5938 8.78125C75.7656 9.90104 76.3646 11.138 76.3906 12.4922V18.7031H64.5156V22.2188C64.5156 22.9479 64.9323 23.625 65.7656 24.25C66.4427 24.7188 67.1589 24.9531 67.9141 24.9531V28C65.5443 28 63.6823 27.0365 62.3281 25.1094C61.599 24.0938 61.2344 23.1302 61.2344 22.2188ZM69.7891 28V24.9141C71.3516 24.9141 72.5234 24.237 73.3047 22.8828C73.4609 22.5964 73.5781 22.3229 73.6562 22.0625L76.4297 23.0781C75.9609 24.875 74.8932 26.2292 73.2266 27.1406C72.1589 27.7135 71.013 28 69.7891 28ZM86.6562 28V12.5703C86.6562 11.112 87.2031 9.8099 88.2969 8.66406C89.5208 7.41406 91.0703 6.78906 92.9453 6.78906V9.99219C91.5391 9.99219 90.6146 10.6042 90.1719 11.8281C90.0417 12.2188 89.9766 12.6094 89.9766 13V28H86.6562ZM94.7031 9.99219V6.78906C96.6823 6.84115 98.2448 7.53125 99.3906 8.85938C100.693 7.53125 102.255 6.84115 104.078 6.78906V9.99219C102.672 9.99219 101.734 10.6042 101.266 11.8281C101.135 12.1927 101.07 12.5833 101.07 13V28H97.75V13C97.75 11.6719 97.1901 10.7604 96.0703 10.2656C95.6536 10.0833 95.1979 9.99219 94.7031 9.99219ZM105.836 9.99219V6.78906C108.31 6.78906 110.146 7.80469 111.344 9.83594C111.891 10.7734 112.164 11.6849 112.164 12.5703V28H108.844V13C108.844 11.5677 108.245 10.6302 107.047 10.1875C106.682 10.0573 106.279 9.99219 105.836 9.99219ZM113.938 23.0781V21.2031C113.938 19.5104 114.602 18.2734 115.93 17.4922C116.346 17.2839 117.948 16.7891 120.734 16.0078C123.833 15.1484 125.383 14.3932 125.383 13.7422V13C125.383 12.375 125.227 11.8021 124.914 11.2812C124.315 10.2917 123.404 9.79688 122.18 9.79688V6.78906C123.977 6.78906 125.474 7.36198 126.672 8.50781C127.948 9.75781 128.586 11.2161 128.586 12.8828V23.5859C128.612 24.3932 128.964 24.8229 129.641 24.875V27.9609C128.339 27.9609 127.284 27.5052 126.477 26.5938C125.435 27.4792 124.003 27.9349 122.18 27.9609V24.9141C122.414 24.9141 122.661 24.901 122.922 24.875C124.562 24.6146 125.383 23.638 125.383 21.9453V17.4531C124.706 17.8177 123.404 18.2344 121.477 18.7031C119.003 19.3021 117.609 19.7448 117.297 20.0312C117.01 20.2917 116.854 20.7083 116.828 21.2812V22.3359C116.854 24.0026 118 24.862 120.266 24.9141V27.9609C118.651 27.9609 117.245 27.5443 116.047 26.7109C114.641 25.7214 113.938 24.5104 113.938 23.0781ZM114.211 12.1016C114.211 10.8516 114.706 9.73177 115.695 8.74219C116.971 7.4401 118.508 6.78906 120.305 6.78906V9.83594C119.81 9.83594 119.341 9.9401 118.898 10.1484C117.701 10.7214 117.102 11.737 117.102 13.1953L114.211 12.1016ZM136.922 28V24.8359H139.852C141.336 24.8359 142.352 24.263 142.898 23.1172C143.055 22.7786 143.133 22.4531 143.133 22.1406V12.7266C143.133 11.9974 142.742 11.3464 141.961 10.7734C141.31 10.2786 140.529 10.0312 139.617 10.0312H136.766V6.86719H139.617C142.143 6.86719 144.07 7.85677 145.398 9.83594C146.049 10.7995 146.375 11.724 146.375 12.6094V22.2578C146.375 23.5339 145.828 24.7578 144.734 25.9297C143.432 27.3099 141.792 28 139.812 28H136.922ZM131.492 35.4219V6.86719H134.93V35.4219H131.492Z" fill="#E73121"/>
</svg>
