<svg width="29" height="30" viewBox="0 0 29 30" fill="none" xmlns="http://www.w3.org/2000/svg">
<path d="M21.7874 20.5787L26.9623 25.7536L25.2535 27.4624L20.0786 22.2875C18.2179 23.7761 15.8581 24.6667 13.2916 24.6667C7.28863 24.6667 2.41663 19.7947 2.41663 13.7917C2.41663 7.78869 7.28863 2.91669 13.2916 2.91669C19.2946 2.91669 24.1666 7.78869 24.1666 13.7917C24.1666 16.3582 23.2761 18.7179 21.7874 20.5787ZM19.3631 19.6821C20.8407 18.1593 21.75 16.0822 21.75 13.7917C21.75 9.11846 17.9649 5.33335 13.2916 5.33335C8.6184 5.33335 4.83329 9.11846 4.83329 13.7917C4.83329 18.4649 8.6184 22.25 13.2916 22.25C15.5821 22.25 17.6593 21.3408 19.182 19.8632L19.3631 19.6821Z" fill="#FE4343"/>
</svg>
