<svg width="24" height="24" viewBox="0 0 24 24" fill="none" xmlns="http://www.w3.org/2000/svg">
<path d="M12.3104 0L20.5273 1.82598C20.9849 1.92766 21.3104 2.33347 21.3104 2.80217V12.7889C21.3104 14.795 20.3078 16.6684 18.6386 17.7812L12.3104 22L5.98216 17.7812C4.31297 16.6684 3.31036 14.795 3.31036 12.7889V2.80217C3.31036 2.33347 3.63589 1.92766 4.09343 1.82598L12.3104 0ZM12.3104 2.04879L5.31036 3.60434V12.7889C5.31036 14.1263 5.97876 15.3752 7.09156 16.1171L12.3104 19.5963L17.5292 16.1171C18.642 15.3752 19.3104 14.1263 19.3104 12.7889V3.60434L12.3104 2.04879ZM16.7628 7.22183L18.177 8.63604L11.813 15L7.57035 10.7574L8.98457 9.3431L11.8123 12.1709L16.7628 7.22183Z" fill="white"/>
</svg>
