<svg width="19" height="19" viewBox="0 0 19 19" fill="none" xmlns="http://www.w3.org/2000/svg">
<path d="M9.98901 16.1366C9.68527 15.9663 9.31483 15.9663 9.01109 16.1366L4.90262 18.4395C4.15812 18.8568 3.26667 18.2097 3.43278 17.3726L4.35119 12.744C4.41881 12.4032 4.30469 12.0517 4.04977 11.8157L0.588911 8.61074C-0.0368957 8.03121 0.303485 6.98456 1.15046 6.884L5.82904 6.3285C6.17452 6.28748 6.47386 6.06985 6.61941 5.75385L8.59176 1.47188C8.94898 0.696374 10.0511 0.696378 10.4083 1.47189L12.3806 5.75384C12.5262 6.06984 12.8255 6.28748 13.171 6.3285L17.8496 6.884C18.6965 6.98456 19.0369 8.0312 18.4111 8.61073L14.9503 11.8157C14.6954 12.0517 14.5813 12.4032 14.6489 12.744L15.5673 17.3726C15.7334 18.2097 14.8419 18.8568 14.0974 18.4395L9.98901 16.1366Z" fill="#E73121"/>
</svg>
