<svg width="16" height="16" viewBox="0 0 16 16" fill="none" xmlns="http://www.w3.org/2000/svg">
<path d="M6.9128 9.08721L14.5563 1.44372M7.00569 9.32597L8.91881 14.2455C9.08733 14.6789 9.17163 14.8956 9.29305 14.9588C9.39831 15.0137 9.52373 15.0137 9.629 14.959C9.75049 14.8959 9.83508 14.6793 10.0041 14.2461L14.8015 1.9527C14.9542 1.56166 15.0305 1.36614 14.9887 1.2412C14.9524 1.1327 14.8673 1.04756 14.7588 1.01131C14.6339 0.969576 14.4383 1.04587 14.0473 1.19847L1.75388 5.9959C1.3207 6.16496 1.10411 6.24948 1.04099 6.37098C0.986268 6.4763 0.986341 6.6017 1.04118 6.70696C1.10444 6.82838 1.32114 6.91268 1.75452 7.0812L6.67403 8.99432C6.76197 9.02853 6.80594 9.04564 6.84299 9.07206C6.87582 9.09543 6.9045 9.12419 6.92794 9.15702C6.95437 9.19407 6.97147 9.23804 7.00569 9.32597Z" stroke="#6BB1E4" stroke-width="2" stroke-linecap="round" stroke-linejoin="round"/>
</svg>
