<svg width="9" height="10" viewBox="0 0 9 10" fill="none" xmlns="http://www.w3.org/2000/svg">
<path d="M3.60693 0.809186C2.9789 0.60588 2.29617 0.888673 1.99583 1.47653L1.63477 2.18325C1.59187 2.26722 1.52357 2.33552 1.4396 2.37842L0.732877 2.73949C0.145021 3.03982 -0.137772 3.72255 0.0655332 4.35058L0.309951 5.10562C0.338992 5.19533 0.338992 5.29194 0.309951 5.38165L0.0655332 6.13669C-0.137772 6.76474 0.145021 7.44746 0.732877 7.74782L1.4396 8.10885C1.52357 8.15177 1.59187 8.22006 1.63477 8.30404L1.99583 9.01077C2.29617 9.59863 2.9789 9.88142 3.60693 9.67812L4.36197 9.43369C4.45168 9.40465 4.54829 9.40465 4.638 9.43369L5.39304 9.67812C6.02109 9.88142 6.70381 9.59863 7.00416 9.01077L7.3652 8.30404C7.40812 8.22006 7.47641 8.15177 7.56039 8.10885L8.26712 7.74782C8.85498 7.44746 9.13777 6.76474 8.93447 6.13669L8.69003 5.38165C8.661 5.29194 8.661 5.19533 8.69003 5.10562L8.93447 4.35058C9.13777 3.72255 8.85498 3.03982 8.26712 2.73949L7.56039 2.37842C7.47641 2.33552 7.40812 2.26722 7.3652 2.18325L7.00416 1.47653C6.70381 0.888673 6.02109 0.60588 5.39304 0.809186L4.638 1.0536C4.54829 1.08264 4.45168 1.08264 4.36197 1.0536L3.60693 0.809186ZM2.15186 5.13489L2.78557 4.50114L4.05297 5.76858L6.5878 3.23377L7.22149 3.86747L4.05297 7.03597L2.15186 5.13489Z" fill="#2B60FF"/>
</svg>
