<svg width="8" height="11" viewBox="0 0 8 11" fill="none" xmlns="http://www.w3.org/2000/svg">
<path d="M0 10.2437C0 8.1397 1.79086 6.43413 4 6.43413C6.20915 6.43413 8 8.1397 8 10.2437H7C7 8.6657 5.65685 7.38651 4 7.38651C2.34314 7.38651 1 8.6657 1 10.2437H0ZM4 5.95794C2.3425 5.95794 1 4.67937 1 3.1008C1 1.52222 2.3425 0.243652 4 0.243652C5.6575 0.243652 7 1.52222 7 3.1008C7 4.67937 5.6575 5.95794 4 5.95794ZM4 5.00556C5.105 5.00556 6 4.15318 6 3.1008C6 2.04841 5.105 1.19603 4 1.19603C2.895 1.19603 2 2.04841 2 3.1008C2 4.15318 2.895 5.00556 4 5.00556Z" fill="#8A8A8A"/>
</svg>
